<svg xmlns="http://www.w3.org/2000/svg" width="1024" height="1024" viewBox="0 0 1024 1024">
<g>
<path d="M 545.72 849.94 C532.34,851.43 502.81,851.97 490.50,850.96 C401.75,843.69 321.51,803.96 262.62,738.14 C217.90,688.16 189.94,628.52 179.32,560.46 C176.72,543.80 176.51,540.37 176.51,513.00 C176.51,484.03 176.93,478.12 180.64,455.00 C183.67,436.11 192.80,404.26 200.55,385.50 C233.35,306.19 291.79,243.12 366.50,206.44 C399.42,190.28 430.43,181.06 471.24,175.29 C486.51,173.13 536.26,172.83 550.88,174.81 C579.48,178.67 608.33,185.68 630.44,194.13 C747.46,238.87 830.78,346.92 846.62,474.50 C848.76,491.67 849.06,529.51 847.20,545.50 C839.29,613.26 815.01,672.28 773.58,724.50 C764.12,736.43 742.03,759.18 729.50,769.92 C676.69,815.16 614.22,842.36 545.72,849.94 ZM 477.00 837.46 C494.58,839.65 540.23,838.90 558.00,836.13 C599.97,829.57 639.16,815.38 676.00,793.39 C731.31,760.39 777.09,709.88 804.46,651.69 C816.39,626.32 824.40,601.93 829.97,574.00 C843.10,508.25 835.39,442.48 807.01,378.00 C785.03,328.07 744.87,278.49 700.00,245.87 C659.18,216.19 611.44,196.33 563.50,189.06 C484.64,177.11 406.72,193.01 341.50,234.36 C244.24,296.02 184.23,408.92 188.34,522.50 C190.90,593.11 215.70,659.62 260.86,717.00 C270.42,729.15 298.69,757.42 311.00,767.17 C360.21,806.09 416.45,829.91 477.00,837.46 ZM 529.20 623.02 C512.54,628.17 494.45,625.35 481.74,615.64 L 476.98 612.00 L 445.77 612.00 L 446.38 609.75 C446.72,608.51 447.28,605.81 447.63,603.75 L 448.26 600.00 L 483.62 600.00 L 488.61 604.82 C494.87,610.85 500.18,612.51 513.00,612.46 C521.50,612.43 523.20,612.10 529.14,609.31 C533.02,607.50 536.74,604.91 538.08,603.10 L 540.38 600.00 L 626.73 600.00 C711.25,600.00 713.16,599.96 717.02,597.99 C718.30,597.34 719.36,597.09 720.24,596.55 C724.54,593.92 724.54,584.25 724.51,485.69 C724.50,476.23 724.50,465.94 724.50,454.77 L 724.50 320.04 L 721.23 316.77 C718.20,313.73 717.40,313.47 709.73,313.00 L 701.50 312.50 L 700.87 306.00 L 714.99 306.00 C725.65,306.00 729.82,306.37 732.03,307.52 C732.85,307.94 733.55,308.14 734.15,308.50 C738.02,310.80 738.02,319.60 738.00,433.06 C738.00,441.33 738.00,450.15 738.00,459.57 L 738.00 604.24 L 734.12 608.12 L 730.24 612.00 L 548.01 612.00 L 541.91 616.49 C538.32,619.13 533.09,621.82 529.20,623.02 ZM 344.43 608.25 L 345.76 612.00 L 320.63 612.00 C297.28,611.99 295.27,611.85 292.23,610.00 C290.42,608.90 288.40,606.76 287.73,605.25 C285.84,601.02 285.66,317.81 287.54,313.27 C290.05,307.23 293.69,306.01 309.25,306.00 L 323.00 306.00 L 323.00 313.00 L 315.75 313.00 C307.19,313.01 302.65,315.19 300.50,320.34 C299.35,323.10 299.15,345.57 299.31,456.75 L 299.50 589.85 L 301.59 592.68 C302.74,594.23 305.17,596.51 306.99,597.75 C310.09,599.86 311.34,600.00 326.65,600.00 C342.93,600.00 343.00,600.01 343.04,602.25 C343.07,603.49 343.69,606.19 344.43,608.25 ZM 511.68 716.46 C499.63,722.35 486.60,719.80 477.32,709.73 C472.50,704.50 471.31,702.44 469.49,696.17 C466.03,684.20 466.89,669.46 471.67,658.81 C477.02,646.87 489.62,638.97 501.11,640.33 C507.88,641.13 515.52,644.68 519.01,648.67 C536.40,668.47 532.30,706.37 511.68,716.46 ZM 347.74 744.05 C340.20,747.34 322.86,747.90 315.01,745.10 C307.66,742.48 303.00,737.45 303.00,732.13 C303.00,728.85 303.64,727.66 307.00,724.62 C309.20,722.63 311.68,721.00 312.50,721.00 C313.33,721.00 314.00,720.55 314.00,720.00 C314.00,719.45 313.53,719.00 312.95,719.00 C312.38,719.00 310.80,717.90 309.45,716.55 C305.81,712.91 306.07,707.13 310.06,702.58 C311.75,700.66 314.02,698.81 315.11,698.47 C316.88,697.90 316.60,697.40 312.57,693.85 C305.28,687.44 304.21,678.97 309.64,670.66 C314.58,663.10 329.68,659.05 340.45,662.39 C343.18,663.23 345.45,663.83 345.51,663.71 C348.97,656.26 357.71,652.71 362.00,657.00 C366.56,661.56 362.40,668.24 356.42,665.97 C354.86,665.38 352.52,665.15 351.23,665.48 L 348.88 666.07 L 351.41 669.08 C363.67,683.64 347.71,703.93 327.08,700.01 C320.92,698.85 317.00,700.42 317.00,704.07 C317.00,707.16 322.04,708.65 335.00,709.40 C349.37,710.23 353.53,711.33 357.61,715.41 C366.02,723.82 361.05,738.24 347.74,744.05 ZM 426.96 602.07 C425.98,603.91 424.57,604.00 396.16,604.00 C374.35,604.00 366.08,603.68 365.20,602.80 C364.41,602.01 364.00,597.77 364.00,590.36 C364.00,580.10 364.20,578.89 366.25,576.61 C368.77,573.81 382.00,566.32 382.00,567.70 C382.00,568.19 379.94,570.59 377.42,573.04 C374.90,575.49 372.20,578.72 371.42,580.20 C368.89,585.00 370.02,596.00 373.04,596.00 C373.57,596.00 374.00,594.31 374.01,592.25 C374.01,586.11 375.79,581.52 379.99,576.75 C384.79,571.29 385.74,568.95 386.61,560.47 C387.22,554.58 387.07,553.71 385.14,551.92 C383.96,550.82 383.00,549.49 383.00,548.96 C383.00,548.40 388.16,548.00 395.48,548.00 L 407.96 548.00 L 407.42 552.25 C406.57,558.88 409.95,564.44 418.34,570.19 C422.11,572.77 425.81,575.69 426.56,576.69 C428.23,578.89 428.55,599.10 426.96,602.07 ZM 705.94 718.42 C703.02,719.29 699.03,719.99 697.07,719.97 C692.55,719.93 684.40,717.13 680.32,714.23 C673.03,709.03 668.14,696.87 669.33,686.85 C671.43,669.12 686.06,658.38 703.25,661.95 C713.42,664.06 720.80,673.14 721.27,684.11 L 721.50 689.50 L 702.75 689.77 C684.11,690.04 684.00,690.06 684.01,692.27 C684.03,696.40 688.73,704.87 692.20,706.99 C700.01,711.80 706.85,711.63 714.49,706.44 C718.13,703.97 721.00,703.78 721.00,706.02 C721.00,706.61 718.81,709.29 716.12,711.97 C712.59,715.50 709.78,717.28 705.94,718.42 ZM 494.57 712.50 C501.08,715.99 508.07,710.96 511.40,700.40 C513.67,693.20 514.57,677.56 513.22,668.92 C511.81,659.95 508.12,651.14 504.70,648.61 C500.84,645.75 494.72,645.99 491.31,649.12 C485.06,654.87 482.05,671.12 483.99,688.71 C485.44,701.95 488.75,709.38 494.57,712.50 ZM 659.00 716.50 L 659.00 719.00 L 645.17 719.00 C637.56,719.00 631.03,718.70 630.67,718.33 C629.42,717.08 630.00,714.94 631.75,714.32 C636.92,712.48 637.00,712.11 637.00,689.85 L 637.00 669.00 L 633.00 669.00 C629.22,669.00 629.00,668.83 629.00,666.00 C629.00,663.19 629.24,663.00 632.86,663.00 L 636.71 663.00 L 637.37 655.94 C638.86,639.85 645.57,633.00 659.82,633.00 C667.72,633.00 672.76,635.53 674.45,640.35 C675.80,644.18 673.42,648.39 669.66,648.82 C666.12,649.23 664.19,647.60 661.90,642.26 C659.84,637.46 657.29,636.71 654.06,639.94 C651.59,642.41 650.80,646.67 651.19,655.50 L 651.50 662.50 L 666.00 663.09 L 666.00 669.00 L 651.00 669.00 L 651.00 688.87 C651.00,707.45 651.13,708.90 653.07,711.37 C654.21,712.81 656.01,714.00 657.07,714.00 C658.46,714.00 659.00,714.70 659.00,716.50 ZM 461.00 716.55 L 461.00 719.00 L 443.17 719.00 C433.36,719.00 425.03,718.70 424.67,718.33 C422.91,716.57 424.17,714.22 427.20,713.61 C428.96,713.26 431.43,712.29 432.70,711.46 L 435.00 709.95 L 435.00 682.60 C435.00,681.55 435.00,680.53 435.00,679.55 C435.01,660.58 435.01,654.83 432.61,653.54 C431.56,652.97 430.06,653.25 427.90,653.65 C427.64,653.70 427.38,653.75 427.10,653.80 C421.52,654.81 420.99,654.62 421.02,651.58 C421.04,649.80 422.92,648.89 434.27,645.22 C441.55,642.87 448.06,640.96 448.75,640.97 C449.72,640.99 450.00,648.35 450.00,674.37 C450.00,706.12 450.10,707.85 451.98,710.25 C453.11,711.68 455.49,713.06 457.48,713.43 C460.37,713.97 461.00,714.53 461.00,716.55 ZM 591.00 717.10 C591.00,718.87 590.10,719.00 577.47,719.00 C565.70,719.00 563.85,718.78 563.29,717.31 C562.88,716.23 563.31,715.24 564.48,714.56 C565.80,713.81 566.80,713.30 567.56,712.55 C570.01,710.15 570.01,705.25 570.00,681.50 C570.00,680.27 570.00,678.99 570.00,677.65 L 570.00 675.30 C570.00,650.02 570.00,644.86 567.50,642.92 C566.79,642.37 565.86,642.08 564.68,641.66 C563.66,641.29 563.00,640.26 563.18,639.32 C563.41,638.10 566.02,636.98 572.50,635.33 C577.45,634.07 582.06,633.24 582.75,633.49 C583.72,633.84 584.00,642.56 584.00,672.50 L 584.00 711.07 L 587.50 713.13 C589.55,714.34 591.00,715.99 591.00,717.10 ZM 399.00 716.50 L 399.00 719.00 L 384.67 719.00 C376.78,719.00 370.03,718.70 369.67,718.33 C368.25,716.92 369.11,714.91 371.52,713.99 C372.90,713.47 374.48,711.87 375.02,710.45 C376.35,706.94 376.29,675.41 374.94,672.89 C374.36,671.80 372.78,670.49 371.44,669.98 C367.28,668.40 368.55,666.28 374.75,664.44 C377.91,663.51 382.41,662.52 384.75,662.24 L 389.00 661.74 L 389.00 667.37 C389.00,670.47 389.45,673.00 390.00,673.00 C390.55,673.00 391.00,672.57 391.00,672.03 C391.00,671.50 392.46,669.41 394.23,667.39 C399.77,661.08 407.46,659.21 412.29,663.01 C417.02,666.74 416.65,674.83 411.65,677.12 C408.93,678.35 405.43,677.00 403.19,673.84 C400.68,670.30 394.77,672.56 391.92,678.16 C390.31,681.32 390.00,684.08 390.00,695.51 C390.00,708.60 390.09,709.18 392.45,711.55 C393.80,712.90 395.83,714.00 396.95,714.00 C398.47,714.00 399.00,714.65 399.00,716.50 ZM 624.00 717.03 C624.00,718.89 623.28,719.00 610.67,719.00 C603.33,719.00 597.03,718.70 596.67,718.33 C595.42,717.08 596.00,714.94 597.75,714.32 C602.86,712.50 603.00,711.91 603.00,692.00 C603.00,675.16 602.82,673.15 601.17,671.65 C600.17,670.74 598.59,670.00 597.67,670.00 C596.68,670.00 596.00,669.20 596.00,668.04 C596.00,666.61 597.02,665.81 599.75,665.10 C612.65,661.74 615.44,661.15 616.18,661.61 C616.63,661.89 617.00,672.63 617.00,685.48 C617.00,698.32 617.28,709.56 617.62,710.46 C617.96,711.35 619.54,712.74 621.12,713.56 C622.82,714.44 624.00,715.86 624.00,717.03 ZM 322.38 740.09 C329.52,743.33 340.35,742.18 345.65,737.63 C347.71,735.85 348.32,734.38 348.40,731.05 C348.55,724.41 346.10,723.10 331.45,722.00 C320.03,721.13 319.43,721.19 317.26,723.22 C315.63,724.76 315.00,726.48 315.00,729.45 C315.00,734.62 317.14,737.71 322.38,740.09 ZM 325.01 692.16 C328.00,695.15 332.45,695.90 335.98,694.01 C341.05,691.30 342.56,675.91 338.31,670.21 C335.72,666.73 328.54,665.90 325.20,668.70 C319.95,673.11 319.84,687.00 325.01,692.16 ZM 684.02 681.25 L 684.00 684.00 L 707.00 684.00 L 707.00 680.57 C707.00,676.23 705.47,672.14 702.76,669.25 C700.19,666.50 693.61,666.18 690.11,668.63 C687.34,670.57 684.05,677.39 684.02,681.25 ZM 552.69 716.83 C549.42,719.89 543.67,719.76 540.45,716.55 C537.01,713.10 537.19,708.65 540.92,704.92 C544.65,701.19 549.10,701.01 552.55,704.45 C555.87,707.78 555.94,713.77 552.69,716.83 ZM 615.20 650.31 C613.65,651.79 611.29,652.99 609.95,652.97 C601.57,652.87 597.87,643.81 604.08,638.59 C608.30,635.04 612.15,635.20 615.41,639.08 C618.82,643.12 618.74,646.91 615.20,650.31 Z" fill="rgb(47,92,87)"/>
<path d="M 724.41 325.77 C724.49,320.70 724.21,319.78 721.45,316.98 L 724.50 320.04 L 724.50 454.77 C724.50,465.94 724.50,476.23 724.51,485.69 C724.54,584.25 724.54,593.92 720.24,596.55 C719.36,597.09 718.30,597.34 717.02,597.99 C713.16,599.96 711.25,600.00 626.73,600.00 L 540.38 600.00 L 538.08 603.10 C536.74,604.91 533.02,607.50 529.14,609.31 C523.20,612.10 521.50,612.43 513.00,612.46 C500.18,612.51 494.87,610.85 488.61,604.82 L 483.62 600.00 L 448.26 600.00 L 447.63 603.75 C447.42,605.01 447.13,606.50 446.86,607.76 C447.17,605.58 447.51,602.13 447.71,598.75 L 448.24 590.00 L 465.06 590.00 C474.31,590.00 482.13,589.59 482.44,589.09 C482.94,588.28 464.94,583.50 453.07,581.29 C448.72,580.48 448.62,580.38 447.46,575.23 C447.39,574.89 447.31,574.57 447.24,574.27 C446.81,572.43 446.54,571.27 447.00,570.66 C447.81,569.59 450.85,570.22 459.18,571.92 C459.97,572.09 460.81,572.26 461.70,572.44 C477.06,575.57 489.58,579.11 498.89,582.95 C502.95,584.63 506.44,586.00 506.64,586.00 C506.84,586.00 507.00,568.00 507.00,546.00 C507.00,524.00 507.34,506.03 507.75,506.07 C508.16,506.11 510.64,508.79 513.25,512.03 L 518.00 517.92 L 518.00 587.05 L 520.25 585.61 C527.39,581.05 553.00,574.16 574.90,570.90 C603.43,566.66 614.36,565.88 652.75,565.31 L 691.00 564.75 L 691.00 466.80 C691.00,381.07 691.19,368.67 692.50,367.36 C694.23,365.63 694.48,361.88 692.96,360.36 C691.74,359.14 693.36,354.00 694.98,354.00 C695.54,354.00 696.00,353.52 696.00,352.94 C696.00,352.36 695.48,352.20 694.85,352.60 C694.17,353.02 693.96,352.87 694.35,352.25 C694.71,351.67 695.79,351.39 696.75,351.65 C698.17,352.01 698.44,352.97 698.15,356.56 C697.85,360.32 698.05,360.92 699.40,360.40 C700.86,359.84 701.00,369.09 701.00,466.92 C701.00,551.74 700.74,574.15 699.75,574.50 C699.06,574.74 681.17,575.14 660.00,575.39 C613.26,575.93 584.81,578.52 557.50,584.71 C551.45,586.09 545.49,587.44 544.25,587.72 C543.01,588.00 542.00,588.63 542.00,589.12 C542.00,589.62 578.27,590.00 626.50,590.00 C709.67,590.00 711.03,589.97 713.00,588.00 C714.97,586.03 715.00,584.67 715.00,484.50 C715.00,428.07 715.38,383.00 715.86,383.00 C716.34,383.00 716.68,379.63 716.61,375.50 C716.55,371.38 716.16,368.00 715.75,368.00 C714.44,368.00 714.94,365.29 716.49,364.01 C717.31,363.33 717.68,362.26 717.32,361.64 C716.95,361.01 717.57,361.30 718.68,362.27 C721.29,364.55 724.00,363.54 724.00,360.28 C724.00,358.10 723.63,357.83 721.19,358.19 C719.15,358.48 717.92,358.00 716.73,356.42 C715.19,354.38 715.20,354.13 716.95,352.54 C718.71,350.95 718.86,350.97 719.48,352.93 C719.84,354.08 720.99,355.00 722.07,355.00 C723.86,355.00 724.01,354.14 724.15,343.25 C724.24,336.79 724.35,328.92 724.41,325.77 ZM 611.96 532.40 C604.02,534.01 587.91,535.09 582.00,534.40 C551.47,530.86 528.09,517.39 514.49,495.52 C504.94,480.16 500.95,464.86 500.94,443.50 C500.93,429.04 502.50,419.08 506.47,408.42 C509.17,401.16 511.21,399.57 513.61,402.83 C514.22,403.66 516.36,404.47 518.35,404.63 C521.11,404.85 522.23,404.45 523.02,402.96 C523.60,401.88 524.76,401.00 525.59,401.00 C526.43,401.00 526.84,400.55 526.50,400.00 C526.16,399.45 526.61,399.00 527.50,399.00 C528.66,399.00 528.33,398.31 526.31,396.53 C524.76,395.17 524.04,394.05 524.70,394.03 C525.36,394.01 526.33,394.77 526.85,395.70 C527.66,397.14 528.06,397.20 529.40,396.08 C530.61,395.08 531.34,395.03 532.37,395.89 C533.13,396.52 534.47,396.76 535.36,396.41 C536.36,396.03 537.22,396.41 537.60,397.40 C537.94,398.28 538.84,399.00 539.61,399.00 C539.69,399.00 539.78,399.00 539.86,399.00 C540.22,398.99 540.50,398.99 540.66,399.12 C541.14,399.50 540.69,401.04 538.94,407.09 C538.81,407.54 538.67,408.01 538.53,408.51 C533.72,425.10 532.94,448.94 536.62,466.87 C539.92,482.97 547.21,498.10 556.30,507.72 C572.46,524.82 598.69,529.47 618.35,518.71 C628.86,512.95 629.00,512.54 629.00,486.32 C629.00,469.10 628.67,463.14 627.56,460.49 C625.98,456.70 621.29,453.34 616.25,452.39 C613.48,451.87 613.00,451.36 613.00,448.89 L 613.00 446.00 L 676.00 446.00 L 676.00 448.98 C676.00,451.41 675.49,452.08 673.25,452.62 C668.68,453.72 665.12,455.89 663.26,458.72 C661.69,461.12 661.45,465.21 661.00,496.45 L 660.50 531.50 L 657.81 531.81 C655.07,532.13 654.31,531.54 649.37,525.25 C645.98,520.93 643.92,521.06 630.53,526.43 C624.46,528.87 616.11,531.56 611.96,532.40 ZM 434.06 613.30 L 430.85 616.00 L 396.17 616.00 C363.55,615.99 361.31,615.88 358.30,614.04 C352.32,610.40 351.50,607.42 351.50,589.46 C351.50,571.13 351.83,570.15 359.75,564.68 C371.06,556.87 373.33,553.38 368.50,551.18 C366.24,550.15 366.00,549.47 366.00,544.14 C366.00,540.15 366.48,537.85 367.49,537.01 C369.11,535.67 410.19,534.79 419.50,535.90 L 424.50 536.50 L 424.80 543.25 C425.08,549.64 424.96,550.06 422.55,551.16 C417.58,553.42 419.66,556.72 430.34,563.48 C438.89,568.89 439.95,571.79 439.98,589.78 C440.00,605.76 439.19,608.98 434.06,613.30 ZM 363.50 607.81 C364.94,608.65 374.33,608.92 396.84,608.74 L 428.18 608.50 L 430.09 606.14 C431.76,604.07 432.00,602.07 432.00,590.11 C432.00,574.02 431.93,573.86 421.93,567.46 C414.44,562.65 411.99,559.16 412.02,553.30 C412.03,548.92 412.64,547.75 415.75,546.11 C420.76,543.48 417.66,543.00 395.50,543.00 C383.12,543.00 373.00,543.35 373.00,543.78 C373.00,544.22 374.40,545.40 376.11,546.41 C379.12,548.19 379.21,548.43 378.80,554.08 C378.30,561.03 377.10,562.61 367.81,568.60 C364.13,570.97 360.64,573.80 360.06,574.89 C359.46,576.01 359.01,582.66 359.03,590.18 C359.06,603.91 359.46,605.45 363.50,607.81 ZM 406.94 512.34 L 407.83 516.18 L 399.41 524.50 C394.79,529.08 391.01,532.30 391.01,531.66 C391.06,528.43 394.90,518.75 396.86,516.91 C398.10,515.76 398.94,514.33 398.74,513.73 C398.13,511.90 395.37,510.64 393.53,511.35 C392.13,511.89 391.91,512.73 392.44,515.52 C393.09,519.01 390.42,530.00 388.92,530.00 C388.53,530.00 387.70,527.11 387.09,523.58 C386.47,520.04 385.33,515.66 384.56,513.83 C383.24,510.71 383.30,510.34 385.51,508.00 C389.59,503.68 394.86,493.98 396.07,488.58 C397.08,484.06 396.94,482.11 394.97,473.60 C393.09,465.46 392.82,462.19 393.34,454.15 C393.69,448.84 394.59,442.48 395.36,440.00 L 396.74 435.50 L 398.37 439.37 C399.27,441.50 400.00,443.64 400.00,444.12 C400.00,444.60 400.34,445.00 400.75,445.00 C401.16,445.00 401.50,440.16 401.51,434.25 C401.52,423.73 401.61,423.31 405.63,414.88 C409.70,406.35 416.38,395.61 420.33,391.24 C422.74,388.57 423.96,389.72 423.98,394.69 C423.99,396.45 424.45,398.16 425.00,398.50 C425.58,398.86 426.00,397.84 426.00,396.06 C426.00,394.22 426.47,393.10 427.19,393.25 C427.85,393.39 428.56,392.60 428.79,391.50 C429.01,390.40 429.67,389.05 430.24,388.50 C430.95,387.82 431.08,387.88 430.63,388.68 C430.27,389.33 430.43,390.15 431.00,390.50 C431.57,390.85 431.77,391.56 431.46,392.07 C430.52,393.58 432.19,393.13 434.17,391.35 C435.90,389.78 436.00,389.85 436.08,392.60 C436.13,394.19 436.29,396.85 436.44,398.50 C436.62,400.52 434.51,406.24 429.97,416.00 C421.80,433.55 418.93,440.31 413.81,454.00 C409.64,465.16 401.00,493.23 401.00,495.62 C401.00,496.40 402.12,497.56 403.50,498.18 C405.63,499.15 406.00,500.00 406.02,503.91 C406.04,506.43 406.45,510.23 406.94,512.34 ZM 426.67 478.81 C422.56,481.66 417.12,484.88 414.59,485.96 L 414.53 485.99 C412.38,486.91 411.05,487.48 410.47,487.05 C409.54,486.36 410.49,483.14 412.95,474.79 L 412.99 474.65 C421.52,445.70 438.68,402.07 440.98,403.49 C442.09,404.18 447.00,401.97 447.00,400.78 C447.00,400.29 447.34,400.08 447.75,400.32 C448.98,401.05 453.18,399.10 452.56,398.09 C452.24,397.58 452.58,396.56 453.31,395.83 C454.70,394.44 455.00,393.74 455.00,391.87 C455.00,391.12 456.32,390.96 459.00,391.38 C461.34,391.76 463.00,391.62 463.00,391.06 C463.00,389.32 460.70,385.00 459.77,385.00 C459.27,385.00 459.56,384.29 460.43,383.43 C461.29,382.56 462.00,381.21 462.00,380.43 C462.00,379.64 462.45,379.00 463.00,379.00 L 464.75 379.00 C465.16,379.00 465.52,379.34 465.55,379.75 C465.70,382.01 467.27,384.95 468.07,384.46 C468.58,384.14 469.00,384.36 469.00,384.94 C469.00,385.52 468.58,386.00 468.07,386.00 C466.54,386.00 465.65,390.17 467.00,391.00 C467.76,391.47 467.94,392.61 467.49,394.02 C466.50,397.14 459.43,404.64 455.74,406.48 C452.33,408.18 450.70,408.49 453.00,407.00 C453.83,406.47 454.05,406.03 453.50,406.03 C451.89,406.03 450.52,407.37 450.21,409.25 C449.85,411.40 450.29,411.42 454.16,409.42 C455.84,408.55 456.95,408.28 456.61,408.82 C456.28,409.36 457.39,410.29 459.08,410.88 C460.77,411.47 461.88,412.39 461.54,412.93 C461.21,413.48 461.45,414.74 462.07,415.74 C463.46,417.96 460.19,430.14 456.50,436.53 C453.67,441.42 445.90,448.85 440.20,452.11 C434.25,455.51 435.01,456.20 442.06,453.82 C445.39,452.70 448.36,452.02 448.66,452.32 C449.62,453.29 443.87,462.75 438.95,468.26 C436.32,471.22 430.79,475.97 426.67,478.81 ZM 344.43 608.25 C343.69,606.19 343.07,603.49 343.04,602.25 C343.00,600.01 342.93,600.00 326.65,600.00 C311.34,600.00 310.09,599.86 306.99,597.75 C305.17,596.51 302.74,594.23 301.59,592.68 L 299.50 589.85 L 299.31 456.75 C299.27,427.86 299.25,404.96 299.27,386.83 C299.30,391.05 299.33,395.53 299.37,400.29 C299.66,442.06 300.15,476.48 300.45,476.78 C300.75,477.09 301.00,475.19 301.00,472.56 C301.00,468.72 301.29,467.90 302.51,468.36 C303.72,468.83 304.01,468.02 304.02,464.22 C304.02,456.21 304.08,455.86 305.31,456.26 C305.96,456.48 306.65,457.71 306.84,458.99 C307.10,460.80 307.38,461.00 308.08,459.91 C308.61,459.07 308.98,484.37 308.98,522.18 L 309.00 585.85 L 311.63 587.93 C314.02,589.81 315.62,590.00 328.63,590.00 L 343.00 590.00 L 343.04 597.25 C343.07,601.24 343.69,606.19 344.43,608.25 ZM 344.03 572.25 C343.06,574.97 342.96,575.00 334.06,575.00 C326.20,575.00 324.94,574.76 324.04,573.07 C323.35,571.79 323.00,550.42 323.00,510.62 C323.00,457.53 323.19,450.00 324.52,449.25 C326.42,448.19 327.16,444.61 326.09,441.71 C325.48,440.05 325.78,439.06 327.30,437.74 C329.19,436.10 329.45,436.09 331.16,437.65 C333.10,439.40 333.71,444.00 332.00,444.00 C331.45,444.00 331.00,444.90 331.00,446.00 C331.00,447.10 331.45,448.00 332.00,448.00 C332.66,448.00 333.00,468.17 333.00,506.50 L 333.00 565.00 L 340.00 565.00 C343.85,565.00 347.00,565.23 347.00,565.51 C347.00,565.80 346.55,566.81 346.00,567.76 C345.45,568.72 344.56,570.74 344.03,572.25 ZM 611.07 500.29 C604.39,505.91 592.91,502.74 588.25,494.00 C586.16,490.07 585.90,488.42 586.18,480.92 C586.46,473.33 586.82,471.92 589.30,468.67 C592.96,463.87 596.77,462.00 602.87,462.00 C612.20,462.00 617.96,469.83 617.96,482.50 C617.96,490.76 615.81,496.30 611.07,500.29 ZM 598.83 498.96 C605.70,502.97 610.62,494.42 609.78,479.89 C609.21,469.93 606.83,465.50 602.05,465.50 C599.58,465.50 598.19,466.21 596.68,468.23 C592.26,474.15 593.78,496.02 598.83,498.96 ZM 582.46 502.06 C581.80,503.13 564.69,503.36 563.65,502.32 C563.27,501.94 564.32,501.06 565.98,500.36 L 569.00 499.10 L 569.00 469.00 L 566.06 469.00 C560.95,469.00 561.86,467.41 568.56,464.66 C572.12,463.20 575.47,462.00 576.00,462.00 C576.56,462.00 577.07,469.47 577.23,480.24 L 577.50 498.47 L 580.27 499.80 C581.79,500.53 582.78,501.55 582.46,502.06 ZM 687.50 301.00 C687.16,301.55 683.96,302.00 680.38,302.00 C676.81,302.00 674.12,301.62 674.41,301.15 C674.70,300.68 674.29,299.44 673.50,298.40 C672.63,297.25 672.05,297.01 672.03,297.79 C672.01,298.74 671.51,298.81 670.08,298.04 C668.76,297.33 668.05,297.34 667.81,298.07 C667.28,299.67 664.26,298.11 663.69,295.93 C663.41,294.87 663.48,293.82 663.84,293.60 C664.20,293.38 670.46,292.87 677.75,292.47 C689.35,291.83 691.00,291.94 691.00,293.29 C691.00,294.14 690.55,294.98 689.99,295.17 C689.43,295.36 688.79,296.52 688.55,297.76 C688.31,298.99 687.84,300.46 687.50,301.00 ZM 697.49 334.72 C697.55,338.52 697.33,338.92 695.28,338.75 C692.05,338.48 691.50,335.54 693.96,331.57 C695.11,329.70 695.93,327.60 695.78,326.90 C695.63,326.19 696.21,325.46 697.09,325.27 C698.62,324.93 699.07,327.21 697.91,329.52 C697.64,330.06 697.45,332.40 697.49,334.72 ZM 721.24 381.24 C722.91,386.06 724.00,384.23 724.00,376.61 C724.00,370.63 723.68,369.09 722.33,368.57 C720.11,367.72 718.00,369.76 719.89,370.93 C720.79,371.49 721.09,372.92 720.77,375.13 C720.50,376.98 720.71,379.73 721.24,381.24 ZM 696.93 296.25 C696.89,298.04 696.53,300.33 696.13,301.35 C695.45,303.08 695.32,303.09 693.99,301.48 C693.20,300.54 692.51,298.25 692.45,296.39 C692.36,293.47 692.67,293.00 694.67,293.00 C696.65,293.00 696.99,293.49 696.93,296.25 ZM 698.50 350.00 C698.16,350.55 697.46,351.00 696.94,351.00 C696.42,351.00 696.00,350.55 696.00,350.00 C696.00,349.45 695.44,349.11 694.75,349.25 C693.47,349.51 693.29,344.37 694.54,343.13 C695.47,342.20 698.12,346.24 697.55,347.72 C697.28,348.42 697.53,349.00 698.09,349.00 C698.66,349.00 698.84,349.45 698.50,350.00 ZM 630.46 372.96 C631.48,374.08 632.09,375.00 631.83,375.00 C630.62,375.00 627.30,370.37 627.71,369.25 C628.35,367.49 630.67,367.70 631.39,369.58 C632.31,371.98 632.15,372.27 630.31,371.56 C628.82,370.99 628.84,371.17 630.46,372.96 ZM 640.79 303.36 C642.31,304.88 642.19,305.00 639.14,305.00 C636.10,305.00 635.98,304.88 637.50,303.36 C639.02,301.83 639.26,301.83 640.79,303.36 ZM 308.62 454.25 C308.48,457.55 307.48,457.77 305.92,454.85 C304.95,453.04 305.01,452.79 306.32,453.29 C307.17,453.62 308.07,453.35 308.31,452.69 C308.55,452.04 308.69,452.74 308.62,454.25 ZM 445.45 400.28 C444.68,402.27 444.36,402.39 443.49,400.98 C443.14,400.42 442.45,400.22 441.94,400.54 C441.44,400.85 441.30,400.39 441.63,399.53 C442.06,398.41 442.59,398.25 443.46,398.97 C444.13,399.53 445.00,399.66 445.39,399.27 C445.79,398.88 445.81,399.33 445.45,400.28 ZM 300.71 319.87 C300.47,320.63 300.27,321.54 300.09,322.65 C300.21,321.43 300.35,320.71 300.50,320.34 C300.57,320.18 300.64,320.02 300.71,319.87 ZM 305.35 314.93 C305.30,314.96 305.24,314.99 305.19,315.03 C304.87,315.22 304.56,315.40 304.27,315.57 C304.61,315.34 304.97,315.13 305.35,314.93 Z" fill="rgb(165,134,74)"/>
<path d="M 724.41 325.77 C724.35,328.92 724.24,336.79 724.15,343.25 C724.01,354.14 723.86,355.00 722.07,355.00 C720.99,355.00 719.84,354.08 719.48,352.93 C718.86,350.97 718.71,350.95 716.95,352.54 C715.20,354.13 715.19,354.38 716.73,356.42 C717.92,358.00 719.15,358.48 721.19,358.19 C723.63,357.83 724.00,358.10 724.00,360.28 C724.00,363.54 721.29,364.55 718.68,362.27 C717.57,361.30 716.95,361.01 717.32,361.64 C717.68,362.26 717.31,363.33 716.49,364.01 C714.94,365.29 714.44,368.00 715.75,368.00 C716.16,368.00 716.55,371.38 716.61,375.50 C716.68,379.63 716.34,383.00 715.86,383.00 C715.38,383.00 715.00,428.07 715.00,484.50 C715.00,584.67 714.97,586.03 713.00,588.00 C712.88,588.12 712.77,588.23 712.64,588.33 C713.91,585.67 713.98,569.70 713.76,455.50 L 713.50 323.50 L 702.00 322.90 L 702.00 447.26 C702.00,545.20 701.73,571.97 700.75,573.26 C700.59,573.47 700.37,573.65 700.01,573.81 C700.79,569.49 701.00,543.92 701.00,466.92 C701.00,369.09 700.86,359.84 699.40,360.40 C698.05,360.92 697.85,360.32 698.15,356.56 C698.44,352.97 698.17,352.01 696.75,351.65 C695.79,351.39 694.71,351.67 694.35,352.25 C693.96,352.87 694.17,353.02 694.85,352.60 C695.48,352.20 696.00,352.36 696.00,352.94 C696.00,353.52 695.54,354.00 694.98,354.00 C693.36,354.00 691.74,359.14 692.96,360.36 C694.48,361.88 694.23,365.63 692.50,367.36 C691.19,368.67 691.00,381.07 691.00,466.80 L 691.00 560.93 L 690.75 433.62 L 690.50 302.50 L 680.50 302.78 C675.00,302.94 659.70,303.96 646.50,305.05 C584.44,310.19 549.56,316.43 529.56,325.97 C524.29,328.49 521.33,329.78 519.65,332.03 C517.51,334.91 517.49,339.36 517.45,350.00 C517.44,350.63 517.44,351.28 517.44,351.95 L 517.35 369.72 L 514.18 373.61 C512.45,375.75 510.13,378.62 509.05,380.00 L 507.07 382.50 L 507.03 358.44 L 507.00 334.37 L 504.25 331.75 C493.32,321.33 457.86,312.71 402.50,307.01 C382.27,304.93 344.64,302.02 337.75,302.01 L 334.00 302.00 L 334.00 564.00 L 340.50 564.00 C344.97,564.00 346.76,564.25 346.87,565.42 C346.24,565.18 343.39,565.00 340.00,565.00 L 333.00 565.00 L 333.00 506.50 C333.00,468.17 332.66,448.00 332.00,448.00 C331.45,448.00 331.00,447.10 331.00,446.00 C331.00,444.90 331.45,444.00 332.00,444.00 C333.71,444.00 333.10,439.40 331.16,437.65 C329.45,436.09 329.19,436.10 327.30,437.74 C325.78,439.06 325.48,440.05 326.09,441.71 C327.16,444.61 326.42,448.19 324.52,449.25 C323.44,449.85 323.11,454.88 323.03,484.80 C323.01,473.34 323.00,460.76 323.00,447.02 L 323.00 322.90 L 316.75 323.20 L 310.50 323.50 L 310.23 455.00 L 309.97 586.50 L 312.09 588.25 C312.18,588.32 312.26,588.39 312.35,588.45 C312.11,588.29 311.88,588.12 311.63,587.93 L 309.00 585.85 L 308.98 522.18 C308.98,484.37 308.61,459.07 308.08,459.91 C307.38,461.00 307.10,460.80 306.84,458.99 C306.65,457.71 305.96,456.48 305.31,456.26 C304.08,455.86 304.02,456.21 304.02,464.22 C304.01,468.02 303.72,468.83 302.51,468.36 C301.29,467.90 301.00,468.72 301.00,472.56 C301.00,475.19 300.75,477.09 300.45,476.78 C300.15,476.48 299.66,442.06 299.37,400.29 C299.33,395.53 299.30,391.05 299.27,386.83 C299.31,344.50 299.54,328.25 300.09,322.65 C300.27,321.54 300.47,320.63 300.71,319.87 C301.55,318.06 302.71,316.64 304.27,315.57 C304.56,315.40 304.87,315.22 305.19,315.03 C305.24,314.99 305.30,314.96 305.35,314.93 C307.86,313.61 311.25,313.01 315.75,313.00 L 323.00 313.00 L 323.00 306.00 L 309.25 306.00 C308.93,306.00 308.61,306.00 308.29,306.01 L 308.45 306.00 L 322.50 305.50 L 322.80 299.86 C323.29,290.41 323.30,290.40 347.28,291.86 C435.63,297.23 489.89,307.24 508.79,321.65 L 512.10 324.18 L 517.30 320.60 C527.23,313.78 549.48,306.59 573.11,302.56 C594.69,298.89 637.13,294.39 664.00,292.94 C673.62,292.42 685.01,291.71 689.29,291.36 C696.51,290.78 697.27,290.90 699.54,293.04 C701.56,294.93 702.00,296.31 702.00,300.67 L 702.00 306.00 L 700.87 306.00 L 701.50 312.50 L 709.73 313.00 C717.40,313.47 718.20,313.73 721.23,316.77 L 721.45 316.98 L 721.45 316.99 C724.21,319.78 724.49,320.70 724.41,325.77 ZM 535.57 422.92 C536.27,417.78 537.26,412.89 538.53,408.51 C538.67,408.01 538.81,407.54 538.94,407.09 C540.69,401.04 541.14,399.50 540.66,399.12 C540.50,398.99 540.22,398.99 539.86,399.00 C539.78,399.00 539.69,399.00 539.61,399.00 C538.84,399.00 537.94,398.28 537.60,397.40 C537.22,396.41 536.36,396.03 535.36,396.41 C534.47,396.76 533.13,396.52 532.37,395.89 C531.34,395.03 530.61,395.08 529.40,396.08 C528.06,397.20 527.66,397.14 526.85,395.70 C526.33,394.77 525.36,394.01 524.70,394.03 C524.04,394.05 524.76,395.17 526.31,396.53 C528.33,398.31 528.66,399.00 527.50,399.00 C526.61,399.00 526.16,399.45 526.50,400.00 C526.84,400.55 526.43,401.00 525.59,401.00 C524.76,401.00 523.60,401.88 523.02,402.96 C522.23,404.45 521.11,404.85 518.35,404.63 C516.36,404.47 514.22,403.66 513.61,402.83 C511.37,399.79 509.45,400.97 507.01,407.03 C507.11,406.75 507.21,406.47 507.32,406.19 C511.69,394.58 515.88,387.57 523.29,379.45 C539.92,361.23 562.07,351.61 590.42,350.30 C604.39,349.66 618.37,351.38 636.82,356.03 C646.66,358.51 650.78,359.16 652.59,361.54 C654.18,363.65 653.98,367.12 654.33,374.41 C654.68,381.73 655.27,392.30 655.64,397.92 L 656.31 408.13 L 651.99 407.82 L 647.67 407.50 L 645.41 400.79 C636.10,373.12 616.50,358.65 590.50,360.28 C561.48,362.09 540.91,385.73 535.57,422.92 ZM 410.69 462.95 C411.85,459.48 412.93,456.36 413.81,454.00 C418.93,440.31 421.80,433.55 429.97,416.00 C434.51,406.24 436.62,400.52 436.44,398.50 C436.29,396.85 436.13,394.19 436.08,392.60 C436.00,389.85 435.90,389.78 434.17,391.35 C432.19,393.13 430.52,393.58 431.46,392.07 C431.77,391.56 431.57,390.85 431.00,390.50 C430.43,390.15 430.27,389.33 430.63,388.68 C431.08,387.88 430.95,387.82 430.24,388.50 C429.67,389.05 429.01,390.40 428.79,391.50 C428.56,392.60 427.85,393.39 427.19,393.25 C426.47,393.10 426.00,394.22 426.00,396.06 C426.00,397.84 425.58,398.86 425.00,398.50 C424.45,398.16 423.99,396.45 423.98,394.69 C423.97,391.93 423.59,390.35 422.84,389.94 C423.56,390.30 423.98,391.65 424.07,394.00 C424.13,395.38 424.94,393.53 425.88,389.89 C426.82,386.26 428.43,381.98 429.46,380.39 C432.58,375.58 443.03,365.83 452.13,359.27 C460.14,353.48 477.80,343.46 478.59,344.25 C478.78,344.45 477.81,347.86 476.42,351.83 C475.04,355.81 472.78,366.14 471.40,374.78 C470.22,382.14 468.70,389.60 467.72,392.95 C467.80,392.05 467.55,391.34 467.00,391.00 C465.65,390.17 466.54,386.00 468.07,386.00 C468.58,386.00 469.00,385.52 469.00,384.94 C469.00,384.36 468.58,384.14 468.07,384.46 C467.27,384.95 465.70,382.01 465.55,379.75 C465.52,379.34 465.16,379.00 464.75,379.00 L 463.00 379.00 C462.45,379.00 462.00,379.64 462.00,380.43 C462.00,381.21 461.29,382.56 460.43,383.43 C459.56,384.29 459.27,385.00 459.77,385.00 C460.70,385.00 463.00,389.32 463.00,391.06 C463.00,391.62 461.34,391.76 459.00,391.38 C456.32,390.96 455.00,391.12 455.00,391.87 C455.00,393.74 454.70,394.44 453.31,395.83 C452.58,396.56 452.24,397.58 452.56,398.09 C453.18,399.10 448.98,401.05 447.75,400.32 C447.34,400.08 447.00,400.29 447.00,400.78 C447.00,401.97 442.09,404.18 440.98,403.49 C440.24,403.03 437.97,407.24 434.93,414.11 C438.06,406.58 441.00,399.99 443.40,395.20 C445.94,390.14 447.80,386.00 447.54,386.00 C446.71,386.00 440.32,396.47 434.60,407.19 C425.95,423.42 417.52,443.14 410.69,462.95 ZM 687.50 301.00 C687.84,300.46 688.31,298.99 688.55,297.76 C688.79,296.52 689.43,295.36 689.99,295.17 C690.55,294.98 691.00,294.14 691.00,293.29 C691.00,291.94 689.35,291.83 677.75,292.47 C670.46,292.87 664.20,293.38 663.84,293.60 C663.48,293.82 663.41,294.87 663.69,295.93 C664.26,298.11 667.28,299.67 667.81,298.07 C668.05,297.34 668.76,297.33 670.08,298.04 C671.51,298.81 672.01,298.74 672.03,297.79 C672.05,297.01 672.63,297.25 673.50,298.40 C674.29,299.44 674.70,300.68 674.41,301.15 C674.12,301.62 676.81,302.00 680.38,302.00 C683.96,302.00 687.16,301.55 687.50,301.00 ZM 459.42 403.83 C456.95,406.20 454.65,408.00 453.75,408.00 C453.16,408.00 452.90,408.23 453.18,408.51 C453.46,408.80 456.27,407.85 459.41,406.41 C462.56,404.97 465.37,404.03 465.66,404.32 C466.12,404.78 464.02,413.96 461.81,422.01 C462.44,419.02 462.62,416.61 462.07,415.74 C461.45,414.74 461.21,413.48 461.54,412.93 C461.88,412.39 460.77,411.47 459.08,410.88 C457.39,410.29 456.28,409.36 456.61,408.82 C456.95,408.28 455.84,408.55 454.16,409.42 C450.29,411.42 449.85,411.40 450.21,409.25 C450.52,407.37 451.89,406.03 453.50,406.03 C454.05,406.03 453.83,406.47 453.00,407.00 C450.70,408.49 452.33,408.18 455.74,406.48 C456.77,405.97 458.06,405.01 459.42,403.83 ZM 697.49 334.72 C697.45,332.40 697.64,330.06 697.91,329.52 C699.07,327.21 698.62,324.93 697.09,325.27 C696.21,325.46 695.63,326.19 695.78,326.90 C695.93,327.60 695.11,329.70 693.96,331.57 C691.50,335.54 692.05,338.48 695.28,338.75 C697.33,338.92 697.55,338.52 697.49,334.72 ZM 721.24 381.24 C720.71,379.73 720.50,376.98 720.77,375.13 C721.09,372.92 720.79,371.49 719.89,370.93 C718.00,369.76 720.11,367.72 722.33,368.57 C723.68,369.09 724.00,370.63 724.00,376.61 C724.00,384.23 722.91,386.06 721.24,381.24 ZM 696.93 296.25 C696.99,293.49 696.65,293.00 694.67,293.00 C692.67,293.00 692.36,293.47 692.45,296.39 C692.51,298.25 693.20,300.54 693.99,301.48 C695.32,303.09 695.45,303.08 696.13,301.35 C696.53,300.33 696.89,298.04 696.93,296.25 ZM 698.50 350.00 C698.84,349.45 698.66,349.00 698.09,349.00 C697.53,349.00 697.28,348.42 697.55,347.72 C698.12,346.24 695.47,342.20 694.54,343.13 C693.29,344.37 693.47,349.51 694.75,349.25 C695.44,349.11 696.00,349.45 696.00,350.00 C696.00,350.55 696.42,351.00 696.94,351.00 C697.46,351.00 698.16,350.55 698.50,350.00 ZM 630.46 372.96 C628.84,371.17 628.82,370.99 630.31,371.56 C632.15,372.27 632.31,371.98 631.39,369.58 C630.67,367.70 628.35,367.49 627.71,369.25 C627.30,370.37 630.62,375.00 631.83,375.00 C632.09,375.00 631.48,374.08 630.46,372.96 ZM 640.79 303.36 C639.26,301.83 639.02,301.83 637.50,303.36 C635.98,304.88 636.10,305.00 639.14,305.00 C642.19,305.00 642.31,304.88 640.79,303.36 ZM 308.62 454.25 C308.69,452.74 308.55,452.04 308.31,452.69 C308.07,453.35 307.17,453.62 306.32,453.29 C305.01,452.79 304.95,453.04 305.92,454.85 C307.48,457.77 308.48,457.55 308.62,454.25 ZM 445.45 400.28 C445.81,399.33 445.79,398.88 445.39,399.27 C445.00,399.66 444.13,399.53 443.46,398.97 C442.59,398.25 442.06,398.41 441.63,399.53 C441.30,400.39 441.44,400.85 441.94,400.54 C442.45,400.22 443.14,400.42 443.49,400.98 C444.36,402.39 444.68,402.27 445.45,400.28 ZM 710.17 589.17 C704.87,589.98 688.18,590.00 626.50,590.00 C681.58,590.00 703.68,589.81 710.17,589.17 ZM 541.38 483.02 C539.38,477.87 537.76,472.43 536.62,466.87 C535.80,462.88 535.20,458.59 534.82,454.16 C535.81,464.47 538.04,474.25 541.38,483.02 ZM 416.04 464.80 C414.94,468.21 413.91,471.51 412.99,474.65 L 412.95 474.79 C410.49,483.14 409.54,486.36 410.47,487.05 C410.59,487.13 410.74,487.18 410.92,487.19 C409.35,487.17 409.97,484.80 412.05,477.61 C413.15,473.78 414.50,469.45 416.04,464.80 ZM 287.52 313.33 C287.53,313.31 287.54,313.29 287.54,313.27 C286.79,315.10 286.36,361.95 286.25,417.60 C286.36,361.96 286.77,315.13 287.52,313.33 ZM 424.29 480.41 C420.77,482.78 417.32,484.79 414.59,485.96 C416.65,485.08 420.65,482.77 424.29,480.41 ZM 401.00 495.65 C401.00,495.64 401.00,495.63 401.00,495.62 C401.00,494.73 402.18,490.34 403.88,484.59 C402.23,490.34 401.03,494.95 401.00,495.65 ZM 502.09 425.30 C501.29,430.72 500.93,436.60 500.94,443.50 C500.93,436.46 501.26,430.71 502.09,425.30 ZM 314.28 589.32 C316.42,589.87 320.20,590.00 328.51,590.00 C320.02,590.00 316.43,589.91 314.28,589.32 ZM 439.06 452.77 C437.76,453.62 436.74,454.37 436.28,454.82 C436.54,454.42 437.47,453.74 439.06,452.77 ZM 448.30 445.99 C446.58,447.60 444.80,449.06 443.04,450.28 C444.77,449.04 446.57,447.57 448.30,445.99 ZM 459.15 430.82 C459.03,431.17 458.91,431.49 458.80,431.78 C458.53,432.51 458.19,433.27 457.78,434.06 C458.25,433.04 458.72,431.95 459.15,430.82 ZM 434.26 472.81 C436.13,471.16 437.81,469.54 438.95,468.26 C437.71,469.66 436.09,471.21 434.26,472.81 ZM 437.41 455.15 C438.52,454.92 440.19,454.45 442.06,453.82 C439.93,454.54 438.38,454.98 437.41,455.15 ZM 683.33 575.03 C680.87,575.08 678.06,575.13 674.84,575.18 C677.86,575.13 680.72,575.08 683.33,575.03 ZM 346.44 566.94 C346.32,567.19 346.17,567.47 346.00,567.76 C346.16,567.49 346.31,567.21 346.44,566.94 Z" fill="rgb(194,176,124)"/>
<path d="M 0.00 512.00 L 0.00 0.00 L 512.00 0.00 L 1024.00 0.00 L 1024.00 512.00 L 1024.00 1024.00 L 512.00 1024.00 L 0.00 1024.00 L 0.00 512.00 ZM 545.72 849.94 C614.22,842.36 676.69,815.16 729.50,769.92 C742.03,759.18 764.12,736.43 773.58,724.50 C815.01,672.28 839.29,613.26 847.20,545.50 C849.06,529.51 848.76,491.67 846.62,474.50 C830.78,346.92 747.46,238.87 630.44,194.13 C608.33,185.68 579.48,178.67 550.88,174.81 C536.26,172.83 486.51,173.13 471.24,175.29 C430.43,181.06 399.42,190.28 366.50,206.44 C291.79,243.12 233.35,306.19 200.55,385.50 C192.80,404.26 183.67,436.11 180.64,455.00 C176.93,478.12 176.51,484.03 176.51,513.00 C176.51,540.37 176.72,543.80 179.32,560.46 C189.94,628.52 217.90,688.16 262.62,738.14 C321.51,803.96 401.75,843.69 490.50,850.96 C502.81,851.97 532.34,851.43 545.72,849.94 ZM 477.00 837.46 C416.45,829.91 360.21,806.09 311.00,767.17 C298.69,757.42 270.42,729.15 260.86,717.00 C215.70,659.62 190.90,593.11 188.34,522.50 C184.23,408.92 244.24,296.02 341.50,234.36 C406.72,193.01 484.64,177.11 563.50,189.06 C611.44,196.33 659.18,216.19 700.00,245.87 C744.87,278.49 785.03,328.07 807.01,378.00 C835.39,442.48 843.10,508.25 829.97,574.00 C824.40,601.93 816.39,626.32 804.46,651.69 C777.09,709.88 731.31,760.39 676.00,793.39 C639.16,815.38 599.97,829.57 558.00,836.13 C540.23,838.90 494.58,839.65 477.00,837.46 ZM 347.74 744.05 C361.05,738.24 366.02,723.82 357.61,715.41 C353.53,711.33 349.37,710.23 335.00,709.40 C322.04,708.65 317.00,707.16 317.00,704.07 C317.00,700.42 320.92,698.85 327.08,700.01 C347.71,703.93 363.67,683.64 351.41,669.08 L 348.88 666.07 L 351.23 665.48 C352.52,665.15 354.86,665.38 356.42,665.97 C362.40,668.24 366.56,661.56 362.00,657.00 C357.71,652.71 348.97,656.26 345.51,663.71 C345.45,663.83 343.18,663.23 340.45,662.39 C329.68,659.05 314.58,663.10 309.64,670.66 C304.21,678.97 305.28,687.44 312.57,693.85 C316.60,697.40 316.88,697.90 315.11,698.47 C314.02,698.81 311.75,700.66 310.06,702.58 C306.07,707.13 305.81,712.91 309.45,716.55 C310.80,717.90 312.38,719.00 312.95,719.00 C313.53,719.00 314.00,719.45 314.00,720.00 C314.00,720.55 313.33,721.00 312.50,721.00 C311.68,721.00 309.20,722.63 307.00,724.62 C303.64,727.66 303.00,728.85 303.00,732.13 C303.00,737.45 307.66,742.48 315.01,745.10 C322.86,747.90 340.20,747.34 347.74,744.05 ZM 511.68 716.46 C532.30,706.37 536.40,668.47 519.01,648.67 C515.52,644.68 507.88,641.13 501.11,640.33 C489.62,638.97 477.02,646.87 471.67,658.81 C466.89,669.46 466.03,684.20 469.49,696.17 C471.31,702.44 472.50,704.50 477.32,709.73 C486.60,719.80 499.63,722.35 511.68,716.46 ZM 705.94 718.42 C709.78,717.28 712.59,715.50 716.12,711.97 C718.81,709.29 721.00,706.61 721.00,706.02 C721.00,703.78 718.13,703.97 714.49,706.44 C706.85,711.63 700.01,711.80 692.20,706.99 C688.73,704.87 684.03,696.40 684.01,692.27 C684.00,690.06 684.11,690.04 702.75,689.77 L 721.50 689.50 L 721.27 684.11 C720.80,673.14 713.42,664.06 703.25,661.95 C686.06,658.38 671.43,669.12 669.33,686.85 C668.14,696.87 673.03,709.03 680.32,714.23 C684.40,717.13 692.55,719.93 697.07,719.97 C699.03,719.99 703.02,719.29 705.94,718.42 ZM 399.00 716.50 C399.00,714.65 398.47,714.00 396.95,714.00 C395.83,714.00 393.80,712.90 392.45,711.55 C390.09,709.18 390.00,708.60 390.00,695.51 C390.00,684.08 390.31,681.32 391.92,678.16 C394.77,672.56 400.68,670.30 403.19,673.84 C405.43,677.00 408.93,678.35 411.65,677.12 C416.65,674.83 417.02,666.74 412.29,663.01 C407.46,659.21 399.77,661.08 394.23,667.39 C392.46,669.41 391.00,671.50 391.00,672.03 C391.00,672.57 390.55,673.00 390.00,673.00 C389.45,673.00 389.00,670.47 389.00,667.37 L 389.00 661.74 L 384.75 662.24 C382.41,662.52 377.91,663.51 374.75,664.44 C368.55,666.28 367.28,668.40 371.44,669.98 C372.78,670.49 374.36,671.80 374.94,672.89 C376.29,675.41 376.35,706.94 375.02,710.45 C374.48,711.87 372.90,713.47 371.52,713.99 C369.11,714.91 368.25,716.92 369.67,718.33 C370.03,718.70 376.78,719.00 384.67,719.00 L 399.00 719.00 L 399.00 716.50 ZM 461.00 716.55 C461.00,714.53 460.37,713.97 457.48,713.43 C455.49,713.06 453.11,711.68 451.98,710.25 C450.10,707.85 450.00,706.12 450.00,674.37 C450.00,648.35 449.72,640.99 448.75,640.97 C448.06,640.96 441.55,642.87 434.27,645.22 C422.92,648.89 421.04,649.80 421.02,651.58 C420.99,654.62 421.52,654.81 427.10,653.80 C435.28,652.31 435.00,651.28 435.00,682.60 L 435.00 709.95 L 432.70 711.46 C431.43,712.29 428.96,713.26 427.20,713.61 C424.17,714.22 422.91,716.57 424.67,718.33 C425.03,718.70 433.36,719.00 443.17,719.00 L 461.00 719.00 L 461.00 716.55 ZM 552.69 716.83 C555.94,713.77 555.87,707.78 552.55,704.45 C549.10,701.01 544.65,701.19 540.92,704.92 C537.19,708.65 537.01,713.10 540.45,716.55 C543.67,719.76 549.42,719.89 552.69,716.83 ZM 591.00 717.10 C591.00,715.99 589.55,714.34 587.50,713.13 L 584.00 711.07 L 584.00 672.50 C584.00,642.56 583.72,633.84 582.75,633.49 C582.06,633.24 577.45,634.07 572.50,635.33 C566.02,636.98 563.41,638.10 563.18,639.32 C563.00,640.26 563.66,641.29 564.68,641.66 C570.13,643.60 570.00,642.73 570.00,677.65 C570.00,712.76 570.23,711.24 564.48,714.56 C563.31,715.24 562.88,716.23 563.29,717.31 C563.85,718.78 565.70,719.00 577.47,719.00 C590.10,719.00 591.00,718.87 591.00,717.10 ZM 624.00 717.03 C624.00,715.86 622.82,714.44 621.12,713.56 C619.54,712.74 617.96,711.35 617.62,710.46 C617.28,709.56 617.00,698.32 617.00,685.48 C617.00,672.63 616.63,661.89 616.18,661.61 C615.44,661.15 612.65,661.74 599.75,665.10 C597.02,665.81 596.00,666.61 596.00,668.04 C596.00,669.20 596.68,670.00 597.67,670.00 C598.59,670.00 600.17,670.74 601.17,671.65 C602.82,673.15 603.00,675.16 603.00,692.00 C603.00,711.91 602.86,712.50 597.75,714.32 C596.00,714.94 595.42,717.08 596.67,718.33 C597.03,718.70 603.33,719.00 610.67,719.00 C623.28,719.00 624.00,718.89 624.00,717.03 ZM 659.00 716.50 C659.00,714.70 658.46,714.00 657.07,714.00 C656.01,714.00 654.21,712.81 653.07,711.37 C651.13,708.90 651.00,707.45 651.00,688.87 L 651.00 669.00 L 658.50 669.00 L 666.00 669.00 L 666.00 666.04 L 666.00 663.09 L 658.75 662.79 L 651.50 662.50 L 651.19 655.50 C650.80,646.67 651.59,642.41 654.06,639.94 C657.29,636.71 659.84,637.46 661.90,642.26 C664.19,647.60 666.12,649.23 669.66,648.82 C673.42,648.39 675.80,644.18 674.45,640.35 C672.76,635.53 667.72,633.00 659.82,633.00 C645.57,633.00 638.86,639.85 637.37,655.94 L 636.71 663.00 L 632.86 663.00 C629.24,663.00 629.00,663.19 629.00,666.00 C629.00,668.83 629.22,669.00 633.00,669.00 L 637.00 669.00 L 637.00 689.85 C637.00,712.11 636.92,712.48 631.75,714.32 C630.00,714.94 629.42,717.08 630.67,718.33 C631.03,718.70 637.56,719.00 645.17,719.00 L 659.00 719.00 L 659.00 716.50 ZM 615.20 650.31 C618.74,646.91 618.82,643.12 615.41,639.08 C612.15,635.20 608.30,635.04 604.08,638.59 C597.87,643.81 601.57,652.87 609.95,652.97 C611.29,652.99 613.65,651.79 615.20,650.31 ZM 529.20 623.02 C533.09,621.82 538.32,619.13 541.91,616.49 L 548.01 612.00 L 639.12 612.00 L 730.24 612.00 L 734.12 608.12 L 738.00 604.24 L 738.00 459.57 C738.00,300.64 738.40,310.81 732.03,307.52 C729.83,306.38 725.71,306.00 715.55,306.00 L 702.00 306.00 L 702.00 300.67 C702.00,296.31 701.56,294.93 699.54,293.04 C697.27,290.90 696.51,290.78 689.29,291.36 C685.01,291.71 673.62,292.42 664.00,292.94 C637.13,294.39 594.69,298.89 573.11,302.56 C549.48,306.59 527.23,313.78 517.30,320.60 L 512.10 324.18 L 508.79 321.65 C489.89,307.24 435.63,297.23 347.28,291.86 C323.30,290.40 323.29,290.41 322.80,299.86 L 322.50 305.50 L 308.45 306.00 C292.78,306.56 289.91,307.56 287.52,313.33 C285.66,317.82 285.86,601.07 287.73,605.25 C288.40,606.76 290.42,608.90 292.23,610.00 C295.27,611.85 297.28,611.99 320.63,612.00 L 345.76 612.00 L 344.43 608.25 C343.69,606.19 343.07,601.24 343.04,597.25 L 343.00 590.00 L 328.61 590.00 C316.38,590.00 313.90,589.74 312.09,588.25 L 309.97 586.50 L 310.23 455.00 L 310.50 323.50 L 316.75 323.20 L 323.00 322.90 L 323.00 447.02 C323.00,530.66 323.34,571.76 324.04,573.07 C324.94,574.76 326.20,575.00 334.06,575.00 C342.96,575.00 343.06,574.97 344.03,572.25 C344.56,570.74 345.45,568.72 346.00,567.76 C347.86,564.53 347.08,564.00 340.50,564.00 L 334.00 564.00 L 334.00 433.00 L 334.00 302.00 L 337.75 302.01 C344.64,302.02 382.27,304.93 402.50,307.01 C457.86,312.71 493.32,321.33 504.25,331.75 L 507.00 334.37 L 507.03 358.44 L 507.07 382.50 L 509.05 380.00 C510.13,378.62 512.45,375.75 514.18,373.61 L 517.35 369.72 L 517.44 351.95 C517.54,331.01 517.13,331.90 529.56,325.97 C549.56,316.43 584.44,310.19 646.50,305.05 C659.70,303.96 675.00,302.94 680.50,302.78 L 690.50 302.50 L 690.75 433.62 L 691.01 564.75 L 652.75 565.31 C614.36,565.88 603.43,566.66 574.90,570.90 C553.00,574.16 527.39,581.05 520.25,585.61 L 518.00 587.05 L 518.00 552.48 L 518.00 517.92 L 513.25 512.03 C510.64,508.79 508.16,506.11 507.75,506.07 C507.34,506.03 507.00,524.00 507.00,546.00 C507.00,568.00 506.84,586.00 506.64,586.00 C506.44,586.00 502.95,584.63 498.89,582.95 C489.58,579.11 477.06,575.57 461.70,572.44 C445.18,569.08 446.04,568.91 447.46,575.23 C448.62,580.38 448.72,580.48 453.07,581.29 C464.94,583.50 482.94,588.28 482.44,589.09 C482.13,589.59 474.31,590.00 465.06,590.00 L 448.24 590.00 L 447.71 598.75 C447.42,603.56 446.86,608.51 446.47,609.75 L 445.77 612.00 L 461.37 612.00 L 476.98 612.00 L 481.74 615.64 C494.45,625.35 512.54,628.17 529.20,623.02 ZM 434.06 613.30 C439.19,608.98 440.00,605.76 439.98,589.78 C439.95,571.79 438.89,568.89 430.34,563.48 C419.66,556.72 417.58,553.42 422.55,551.16 C424.96,550.06 425.08,549.64 424.80,543.25 L 424.50 536.50 L 419.50 535.90 C410.19,534.79 369.11,535.67 367.49,537.01 C366.48,537.85 366.00,540.15 366.00,544.14 C366.00,549.47 366.24,550.15 368.50,551.18 C373.33,553.38 371.06,556.87 359.75,564.68 C351.83,570.15 351.50,571.13 351.50,589.46 C351.50,607.42 352.32,610.40 358.30,614.04 C361.31,615.88 363.55,615.99 396.17,616.00 L 430.85 616.00 L 434.06 613.30 ZM 611.96 532.40 C616.11,531.56 624.46,528.87 630.53,526.43 C643.92,521.06 645.98,520.93 649.37,525.25 C654.31,531.54 655.07,532.13 657.81,531.81 L 660.50 531.50 L 661.00 496.45 C661.45,465.21 661.69,461.12 663.26,458.72 C665.12,455.89 668.68,453.72 673.25,452.62 C675.49,452.08 676.00,451.41 676.00,448.98 L 676.00 446.00 L 644.50 446.00 L 613.00 446.00 L 613.00 448.89 C613.00,451.36 613.48,451.87 616.25,452.39 C621.29,453.34 625.98,456.70 627.56,460.49 C628.67,463.14 629.00,469.10 629.00,486.32 C629.00,512.54 628.86,512.95 618.35,518.71 C598.69,529.47 572.46,524.82 556.30,507.72 C539.91,490.36 531.71,459.92 534.91,428.27 C538.99,388.01 560.11,362.17 590.50,360.28 C616.50,358.65 636.10,373.12 645.41,400.79 L 647.67 407.50 L 651.99 407.82 L 656.31 408.13 L 655.64 397.92 C655.27,392.30 654.68,381.73 654.33,374.41 C653.59,358.85 655.35,360.70 636.82,356.03 C618.37,351.38 604.39,349.66 590.42,350.30 C562.07,351.61 539.92,361.23 523.29,379.45 C515.88,387.57 511.69,394.58 507.32,406.19 C502.51,418.97 500.93,428.20 500.94,443.50 C500.95,464.86 504.94,480.16 514.49,495.52 C528.09,517.39 551.47,530.86 582.00,534.40 C587.91,535.09 604.02,534.01 611.96,532.40 ZM 406.94 512.34 C406.45,510.23 406.04,506.43 406.02,503.91 C406.00,500.00 405.63,499.15 403.50,498.18 C402.12,497.56 401.00,496.42 401.00,495.67 C401.00,494.91 402.84,488.04 405.10,480.40 C412.57,455.08 423.40,428.20 434.60,407.19 C440.32,396.47 446.71,386.00 447.54,386.00 C447.80,386.00 445.94,390.14 443.40,395.20 C434.60,412.73 418.71,454.48 412.05,477.61 C409.02,488.13 409.07,488.33 414.59,485.96 C421.65,482.93 433.64,474.23 438.95,468.26 C443.87,462.75 449.62,453.29 448.66,452.32 C448.36,452.02 445.39,452.70 442.06,453.82 C438.73,454.95 436.01,455.56 436.02,455.18 C436.03,454.81 438.33,453.15 441.13,451.50 C448.25,447.30 456.41,438.20 458.80,431.78 C461.38,424.89 466.34,405.01 465.66,404.32 C465.37,404.03 462.56,404.97 459.41,406.41 C456.27,407.85 453.46,408.80 453.18,408.51 C452.90,408.23 453.16,408.00 453.75,408.00 C455.87,408.00 465.66,398.08 467.26,394.32 C468.15,392.22 470.01,383.43 471.40,374.78 C472.78,366.14 475.04,355.81 476.42,351.83 C477.81,347.86 478.78,344.45 478.59,344.25 C477.80,343.46 460.14,353.48 452.13,359.27 C443.03,365.83 432.58,375.58 429.46,380.39 C428.43,381.98 426.82,386.26 425.88,389.89 C424.94,393.53 424.13,395.38 424.07,394.00 C423.89,389.64 422.62,388.70 420.33,391.24 C416.38,395.61 409.70,406.35 405.63,414.88 C401.61,423.31 401.52,423.73 401.51,434.25 C401.50,440.16 401.16,445.00 400.75,445.00 C400.34,445.00 400.00,444.60 400.00,444.12 C400.00,443.64 399.27,441.50 398.37,439.37 L 396.74 435.50 L 395.36 440.00 C394.59,442.48 393.69,448.84 393.34,454.15 C392.82,462.19 393.09,465.46 394.97,473.60 C396.94,482.11 397.08,484.06 396.07,488.58 C394.86,493.98 389.59,503.68 385.51,508.00 C383.30,510.34 383.24,510.71 384.56,513.83 C385.33,515.66 386.47,520.04 387.09,523.58 C387.70,527.11 388.53,530.00 388.92,530.00 C390.42,530.00 393.09,519.01 392.44,515.52 C391.91,512.73 392.13,511.89 393.53,511.35 C395.37,510.64 398.13,511.90 398.74,513.73 C398.94,514.33 398.10,515.76 396.86,516.91 C394.90,518.75 391.06,528.43 391.01,531.66 C391.01,532.30 394.79,529.08 399.41,524.50 L 407.83 516.18 L 406.94 512.34 ZM 582.46 502.06 C582.78,501.55 581.79,500.53 580.27,499.80 L 577.50 498.47 L 577.23 480.24 C577.07,469.47 576.56,462.00 576.00,462.00 C575.47,462.00 572.12,463.20 568.56,464.66 C561.86,467.41 560.95,469.00 566.06,469.00 L 569.00 469.00 L 569.00 484.05 L 569.00 499.10 L 565.98 500.36 C564.32,501.06 563.27,501.94 563.65,502.32 C564.69,503.36 581.80,503.13 582.46,502.06 ZM 611.07 500.29 C615.81,496.30 617.96,490.76 617.96,482.50 C617.96,469.83 612.20,462.00 602.87,462.00 C596.77,462.00 592.96,463.87 589.30,468.67 C586.82,471.92 586.46,473.33 586.18,480.92 C585.90,488.42 586.16,490.07 588.25,494.00 C592.91,502.74 604.39,505.91 611.07,500.29 ZM 322.38 740.09 C317.14,737.71 315.00,734.62 315.00,729.45 C315.00,726.48 315.63,724.76 317.26,723.22 C319.43,721.19 320.03,721.13 331.45,722.00 C346.10,723.10 348.55,724.41 348.40,731.05 C348.32,734.38 347.71,735.85 345.65,737.63 C340.35,742.18 329.52,743.33 322.38,740.09 ZM 325.01 692.16 C319.84,687.00 319.95,673.11 325.20,668.70 C328.54,665.90 335.72,666.73 338.31,670.21 C342.56,675.91 341.05,691.30 335.98,694.01 C332.45,695.90 328.00,695.15 325.01,692.16 ZM 494.57 712.50 C488.75,709.38 485.44,701.95 483.99,688.71 C482.05,671.12 485.06,654.87 491.31,649.12 C494.72,645.99 500.84,645.75 504.70,648.61 C508.12,651.14 511.81,659.95 513.22,668.92 C514.57,677.56 513.67,693.20 511.40,700.40 C508.07,710.96 501.08,715.99 494.57,712.50 ZM 684.02 681.25 C684.05,677.39 687.34,670.57 690.11,668.63 C693.61,666.18 700.19,666.50 702.76,669.25 C705.47,672.14 707.00,676.23 707.00,680.57 L 707.00 684.00 L 695.50 684.00 L 684.00 684.00 L 684.02 681.25 ZM 542.00 589.12 C542.00,588.63 543.01,588.00 544.25,587.72 C545.49,587.44 551.45,586.09 557.50,584.71 C584.88,578.50 613.23,575.93 660.50,575.37 C695.17,574.96 699.64,574.72 700.75,573.26 C701.73,571.97 702.00,545.20 702.00,447.26 L 702.00 322.90 L 707.75 323.20 L 713.50 323.50 L 713.76 455.50 C714.00,578.71 713.90,587.58 712.32,588.75 C710.99,589.73 692.18,590.00 626.31,590.00 C578.19,590.00 542.00,589.62 542.00,589.12 ZM 363.50 607.81 C359.46,605.45 359.06,603.91 359.03,590.18 C359.01,582.66 359.46,576.01 360.06,574.89 C360.64,573.80 364.13,570.97 367.81,568.60 C377.10,562.61 378.30,561.03 378.80,554.08 C379.21,548.43 379.12,548.19 376.11,546.41 C374.40,545.40 373.00,544.22 373.00,543.78 C373.00,543.35 383.12,543.00 395.50,543.00 C417.66,543.00 420.76,543.48 415.75,546.11 C412.64,547.75 412.03,548.92 412.02,553.30 C411.99,559.16 414.44,562.65 421.93,567.46 C431.93,573.86 432.00,574.02 432.00,590.11 C432.00,602.07 431.76,604.07 430.09,606.14 L 428.18 608.50 L 396.84 608.74 C374.33,608.92 364.94,608.65 363.50,607.81 ZM 426.96 602.07 C428.55,599.10 428.23,578.89 426.56,576.69 C425.81,575.69 422.11,572.77 418.34,570.19 C409.95,564.44 406.57,558.88 407.42,552.25 L 407.96 548.00 L 395.48 548.00 C388.16,548.00 383.00,548.40 383.00,548.96 C383.00,549.49 383.96,550.82 385.14,551.92 C387.07,553.71 387.22,554.58 386.61,560.47 C385.74,568.95 384.79,571.29 379.99,576.75 C375.79,581.52 374.01,586.11 374.01,592.25 C374.00,594.31 373.57,596.00 373.04,596.00 C370.02,596.00 368.89,585.00 371.42,580.20 C372.20,578.72 374.90,575.49 377.42,573.04 C379.94,570.59 382.00,568.19 382.00,567.70 C382.00,566.32 368.77,573.81 366.25,576.61 C364.20,578.89 364.00,580.10 364.00,590.36 C364.00,597.77 364.41,602.01 365.20,602.80 C366.08,603.68 374.35,604.00 396.16,604.00 C424.57,604.00 425.98,603.91 426.96,602.07 ZM 598.83 498.96 C593.78,496.02 592.26,474.15 596.68,468.23 C598.19,466.21 599.58,465.50 602.05,465.50 C606.83,465.50 609.21,469.93 609.78,479.89 C610.62,494.42 605.70,502.97 598.83,498.96 Z" fill="rgb(250,247,236)"/>
</g>
</svg>