<svg xmlns="http://www.w3.org/2000/svg" viewBox="0 0 600 800" width="600" height="800">
  <defs>
    <linearGradient id="g" x1="0%" y1="0%" x2="100%" y2="100%">
      <stop offset="0%" style="stop-color:#1a0a2e"/>
      <stop offset="100%" style="stop-color:#0f1a2e"/>
    </linearGradient>
  </defs>
  <rect width="600" height="800" fill="url(#g)"/>
  <circle cx="420" cy="130" r="42" fill="#fff8e7"/>
  <circle cx="80" cy="60" r="2" fill="#fff" opacity="0.8"/>
  <circle cx="150" cy="40" r="1.5" fill="#fff" opacity="0.6"/>
  <circle cx="320" cy="50" r="2" fill="#fff" opacity="0.5"/>
  <circle cx="500" cy="70" r="1.5" fill="#fff" opacity="0.8"/>
  <polygon points="0,600 150,320 300,500 420,280 600,580 600,800 0,800" fill="#0d0d1a"/>
  <rect x="240" y="420" width="10" height="80" fill="#0d0d1a"/>
  <polygon points="220,430 260,430 245,410" fill="#0d0d1a"/>
  <rect x="350" y="480" width="8" height="100" fill="#c0392b"/>
  <rect x="390" y="480" width="8" height="100" fill="#c0392b"/>
  <rect x="342" y="490" width="64" height="10" fill="#c0392b"/>
  <text x="300" y="775" font-family="Georgia, serif" font-size="16" fill="#f0a500" text-anchor="middle">Tokyo Night</text>
</svg>
