<svg xmlns="http://www.w3.org/2000/svg" viewBox="0 0 600 800" width="600" height="800">
  <defs>
    <linearGradient id="g" x1="0%" y1="0%" x2="0%" y2="100%">
      <stop offset="0%" style="stop-color:#ffb347"/>
      <stop offset="50%" style="stop-color:#ff6b35"/>
      <stop offset="100%" style="stop-color:#c0392b"/>
    </linearGradient>
  </defs>
  <rect width="600" height="800" fill="url(#g)"/>
  <!-- Row of torii gates in perspective -->
  <rect x="260" y="200" width="16" height="400" fill="#c0392b"/>
  <rect x="324" y="200" width="16" height="400" fill="#c0392b"/>
  <rect x="248" y="220" width="104" height="18" fill="#c0392b"/>
  <rect x="254" y="210" width="92" height="14" fill="#c0392b" rx="2"/>

  <rect x="272" y="280" width="12" height="320" fill="#a93226"/>
  <rect x="316" y="280" width="12" height="320" fill="#a93226"/>
  <rect x="264" y="296" width="72" height="14" fill="#a93226"/>

  <rect x="281" y="340" width="9" height="260" fill="#922b21"/>
  <rect x="310" y="340" width="9" height="260" fill="#922b21"/>
  <rect x="275" y="353" width="50" height="11" fill="#922b21"/>
  <!-- Path -->
  <polygon points="270,800 330,800 310,580 290,580" fill="#c8a06e" opacity="0.6"/>
  <!-- Trees -->
  <rect x="180" y="450" width="8" height="200" fill="#2d1a0e"/>
  <ellipse cx="184" cy="440" rx="25" ry="35" fill="#1a4a1a"/>
  <rect x="410" y="460" width="8" height="190" fill="#2d1a0e"/>
  <ellipse cx="414" cy="450" rx="23" ry="33" fill="#1a4a1a"/>
  <text x="300" y="775" font-family="Georgia, serif" font-size="16" fill="#fff" text-anchor="middle">Fushimi Inari</text>
</svg>
